HIERARCHY
ROOT Hips
{
	OFFSET 0.000000 71.427986 0.000000
	CHANNELS 6 Xposition Yposition Zposition Xrotation Yrotation Zrotation
	JOINT Pelvis
	{
		OFFSET 0.000000 0.000000 0.000000
		CHANNELS 3 Xrotation Yrotation Zrotation
		JOINT LeftUpLeg
		{
			OFFSET 6.797100 -2.508499 -1.318700
			CHANNELS 3 Xrotation Yrotation Zrotation
			JOINT LeftLeg
			{
				OFFSET 0.069008 -29.241863 0.690200
				CHANNELS 3 Xrotation Yrotation Zrotation
				JOINT LeftFoot
				{
					OFFSET -0.069008 -29.568123 -0.266800
					CHANNELS 3 Xrotation Yrotation Zrotation
					JOINT LeftToeBase
					{
						OFFSET 3.145500 -8.631000 16.059900
						CHANNELS 3 Xrotation Yrotation Zrotation
						End Site
						{
							OFFSET 0.000000 18.501587 0.000000
						}
					}
				}
			}
			JOINT Left_ShortSleeve
			{
				OFFSET 0.265923 -10.480953 1.153800
				CHANNELS 3 Xrotation Yrotation Zrotation
				End Site
				{
					OFFSET 1.725763 19.823879 0.000000
				}
			}
		}
		JOINT RightUpLeg
		{
			OFFSET -6.797100 -2.508499 -1.318700
			CHANNELS 3 Xrotation Yrotation Zrotation
			JOINT RightLeg
			{
				OFFSET -0.082453 -29.241932 0.688000
				CHANNELS 3 Xrotation Yrotation Zrotation
				JOINT RightFoot
				{
					OFFSET 0.082453 -29.568058 -0.264600
					CHANNELS 3 Xrotation Yrotation Zrotation
					JOINT RightToeBase
					{
						OFFSET -3.115300 -8.682800 16.113400
						CHANNELS 3 Xrotation Yrotation Zrotation
						End Site
						{
							OFFSET 0.000000 18.567114 0.000000
						}
					}
				}
			}
			JOINT Right_ShortSleeve
			{
				OFFSET -0.265923 -10.480953 1.153800
				CHANNELS 3 Xrotation Yrotation Zrotation
				End Site
				{
					OFFSET -1.725766 19.823910 0.000000
				}
			}
		}
	}
	JOINT Spine
	{
		OFFSET 0.000000 13.368103 0.470500
		CHANNELS 3 Xrotation Yrotation Zrotation
		JOINT Spine1
		{
			OFFSET 0.147000 13.837402 0.538800
			CHANNELS 3 Xrotation Yrotation Zrotation
			JOINT Spine2
			{
				OFFSET 0.168000 16.242897 -1.435500
				CHANNELS 3 Xrotation Yrotation Zrotation
				JOINT Neck
				{
					OFFSET 0.217200 18.631500 -1.679100
					CHANNELS 3 Xrotation Yrotation Zrotation
					JOINT Head
					{
						OFFSET 0.000000 6.599396 1.385900
						CHANNELS 3 Xrotation Yrotation Zrotation
						JOINT Hat
						{
							OFFSET -0.532200 27.220596 -10.096100
							CHANNELS 3 Xrotation Yrotation Zrotation
							End Site
							{
								OFFSET 0.000000 22.029861 0.000000
							}
						}
						JOINT HairD
						{
							OFFSET -10.777400 17.437393 -1.325900
							CHANNELS 3 Xrotation Yrotation Zrotation
							JOINT HairD1
							{
								OFFSET -3.290299 -11.051193 1.062200
								CHANNELS 3 Xrotation Yrotation Zrotation
								End Site
								{
									OFFSET 0.000000 11.579437 0.000000
								}
							}
						}
						JOINT HairB
						{
							OFFSET -10.777400 17.437393 1.467900
							CHANNELS 3 Xrotation Yrotation Zrotation
							JOINT HairB1
							{
								OFFSET -1.561200 -12.956299 3.590200
								CHANNELS 3 Xrotation Yrotation Zrotation
								End Site
								{
									OFFSET 0.000000 13.534866 0.000000
								}
							}
						}
						JOINT HairA
						{
							OFFSET 9.713100 17.437393 1.467900
							CHANNELS 3 Xrotation Yrotation Zrotation
							JOINT HairA1
							{
								OFFSET 1.561200 -12.956299 3.590200
								CHANNELS 3 Xrotation Yrotation Zrotation
								End Site
								{
									OFFSET 0.000000 13.534866 0.000000
								}
							}
						}
						JOINT HairC
						{
							OFFSET 9.713100 17.437393 -1.325900
							CHANNELS 3 Xrotation Yrotation Zrotation
							JOINT HairC1
							{
								OFFSET 3.290300 -11.051193 1.062200
								CHANNELS 3 Xrotation Yrotation Zrotation
								End Site
								{
									OFFSET 0.000000 11.579437 0.000000
								}
							}
						}
					}
				}
				JOINT LeftShoulder
				{
					OFFSET 5.101800 15.108002 -2.763700
					CHANNELS 3 Xrotation Yrotation Zrotation
					JOINT LeftArm
					{
						OFFSET 9.825497 2.506317 -1.597400
						CHANNELS 3 Xrotation Yrotation Zrotation
						JOINT LeftForeArm
						{
							OFFSET 21.966244 0.000000 0.000000
							CHANNELS 3 Xrotation Yrotation Zrotation
							JOINT LeftHand
							{
								OFFSET 33.879036 0.000000 0.000000
								CHANNELS 3 Xrotation Yrotation Zrotation
								JOINT LeftHandThumb1
								{
									OFFSET 6.715286 -2.359680 3.363841
									CHANNELS 3 Xrotation Yrotation Zrotation
									JOINT LeftHandThumb2
									{
										OFFSET 2.507072 -1.447464 1.447461
										CHANNELS 3 Xrotation Yrotation Zrotation
										JOINT LeftHandThumb3
										{
											OFFSET 2.898338 -1.673355 1.673357
											CHANNELS 3 Xrotation Yrotation Zrotation
											End Site
											{
												OFFSET -0.295959 3.727692 -0.131651
											}
										}
									}
								}
								JOINT LeftHandIndex1
								{
									OFFSET 14.190811 -0.254547 3.840278
									CHANNELS 3 Xrotation Yrotation Zrotation
									JOINT LeftHandIndex2
									{
										OFFSET 3.551727 0.000000 -0.000000
										CHANNELS 3 Xrotation Yrotation Zrotation
										JOINT LeftHandIndex3
										{
											OFFSET 2.894196 0.000000 0.000000
											CHANNELS 3 Xrotation Yrotation Zrotation
											End Site
											{
												OFFSET -1.000603 2.690872 0.366626
											}
										}
									}
								}
								JOINT LeftHandMiddle1
								{
									OFFSET 13.776489 0.000000 0.000000
									CHANNELS 3 Xrotation Yrotation Zrotation
									JOINT LeftHandMiddle2
									{
										OFFSET 3.438232 0.000000 0.000000
										CHANNELS 3 Xrotation Yrotation Zrotation
										JOINT LeftHandMiddle3
										{
											OFFSET 3.691551 0.000000 0.000000
											CHANNELS 3 Xrotation Yrotation Zrotation
											End Site
											{
												OFFSET -1.082298 3.499527 0.457670
											}
										}
									}
								}
								JOINT LeftHandRing1
								{
									OFFSET 13.966164 -0.268127 -3.067488
									CHANNELS 3 Xrotation Yrotation Zrotation
									JOINT LeftHandRing2
									{
										OFFSET 3.162567 0.000000 0.000000
										CHANNELS 3 Xrotation Yrotation Zrotation
										JOINT LeftHandRing3
										{
											OFFSET 3.324348 0.000000 0.000000
											CHANNELS 3 Xrotation Yrotation Zrotation
											End Site
											{
												OFFSET -0.861900 3.184998 0.405154
											}
										}
									}
								}
								JOINT LeftHandPinky1
								{
									OFFSET 13.131393 -0.168503 -5.746925
									CHANNELS 3 Xrotation Yrotation Zrotation
									JOINT LeftHandPinky2
									{
										OFFSET 2.849182 0.000000 0.000000
										CHANNELS 3 Xrotation Yrotation Zrotation
										JOINT LeftHandPinky3
										{
											OFFSET 2.805038 0.000000 0.000000
											CHANNELS 3 Xrotation Yrotation Zrotation
											End Site
											{
												OFFSET -0.882500 2.642609 0.325652
											}
										}
									}
								}
							}
							JOINT Left_Sleeve
							{
								OFFSET 6.592125 -0.646545 0.805568
								CHANNELS 3 Xrotation Yrotation Zrotation
								End Site
								{
									OFFSET -0.000179 20.275787 -0.000000
								}
							}
						}
					}
				}
				JOINT RightShoulder
				{
					OFFSET -5.731700 15.108002 -2.763700
					CHANNELS 3 Xrotation Yrotation Zrotation
					JOINT RightArm
					{
						OFFSET -9.825497 2.506317 -1.597400
						CHANNELS 3 Xrotation Yrotation Zrotation
						JOINT RightForeArm
						{
							OFFSET -21.966242 0.000000 0.000000
							CHANNELS 3 Xrotation Yrotation Zrotation
							JOINT RightHand
							{
								OFFSET -33.879032 0.000000 0.000000
								CHANNELS 3 Xrotation Yrotation Zrotation
								JOINT RightHandThumb1
								{
									OFFSET -6.715286 -2.359680 3.363841
									CHANNELS 3 Xrotation Yrotation Zrotation
									JOINT RightHandThumb2
									{
										OFFSET -2.507072 -1.447464 1.447461
										CHANNELS 3 Xrotation Yrotation Zrotation
										JOINT RightHandThumb3
										{
											OFFSET -2.898338 -1.673355 1.673357
											CHANNELS 3 Xrotation Yrotation Zrotation
											End Site
											{
												OFFSET 0.295959 3.727692 -0.131651
											}
										}
									}
								}
								JOINT RightHandIndex1
								{
									OFFSET -14.190811 -0.254547 3.840278
									CHANNELS 3 Xrotation Yrotation Zrotation
									JOINT RightHandIndex2
									{
										OFFSET -3.551727 0.000000 -0.000000
										CHANNELS 3 Xrotation Yrotation Zrotation
										JOINT RightHandIndex3
										{
											OFFSET -2.894196 0.000000 0.000000
											CHANNELS 3 Xrotation Yrotation Zrotation
											End Site
											{
												OFFSET 1.000603 2.690872 0.366626
											}
										}
									}
								}
								JOINT RightHandMiddle1
								{
									OFFSET -13.776489 0.000000 0.000000
									CHANNELS 3 Xrotation Yrotation Zrotation
									JOINT RightHandMiddle2
									{
										OFFSET -3.438232 0.000000 0.000000
										CHANNELS 3 Xrotation Yrotation Zrotation
										JOINT RightHandMiddle3
										{
											OFFSET -3.691551 0.000000 0.000000
											CHANNELS 3 Xrotation Yrotation Zrotation
											End Site
											{
												OFFSET 1.082298 3.499527 0.457670
											}
										}
									}
								}
								JOINT RightHandRing1
								{
									OFFSET -13.966164 -0.268127 -3.067488
									CHANNELS 3 Xrotation Yrotation Zrotation
									JOINT RightHandRing2
									{
										OFFSET -3.162567 0.000000 0.000000
										CHANNELS 3 Xrotation Yrotation Zrotation
										JOINT RightHandRing3
										{
											OFFSET -3.324348 0.000000 0.000000
											CHANNELS 3 Xrotation Yrotation Zrotation
											End Site
											{
												OFFSET 0.861900 3.184998 0.405154
											}
										}
									}
								}
								JOINT RightHandPinky1
								{
									OFFSET -13.131393 -0.168503 -5.746925
									CHANNELS 3 Xrotation Yrotation Zrotation
									JOINT RightHandPinky2
									{
										OFFSET -2.849182 0.000000 0.000000
										CHANNELS 3 Xrotation Yrotation Zrotation
										JOINT RightHandPinky3
										{
											OFFSET -2.805038 0.000000 0.000000
											CHANNELS 3 Xrotation Yrotation Zrotation
											End Site
											{
												OFFSET 0.882500 2.642609 0.325652
											}
										}
									}
								}
							}
							JOINT Right_Sleeve
							{
								OFFSET -6.592125 -0.646545 0.805568
								CHANNELS 3 Xrotation Yrotation Zrotation
								End Site
								{
									OFFSET 0.000179 20.275787 -0.000000
								}
							}
						}
					}
				}
				JOINT Bind_Right_JacketString
				{
					OFFSET -3.534800 11.969597 7.200700
					CHANNELS 3 Xrotation Yrotation Zrotation
					JOINT Bind_Right_JacketString1
					{
						OFFSET -0.319900 -6.102600 2.794100
						CHANNELS 3 Xrotation Yrotation Zrotation
						End Site
						{
							OFFSET 0.000000 6.719452 0.000000
						}
					}
				}
				JOINT Bind_Left_JacketString
				{
					OFFSET 2.904800 11.969597 7.200700
					CHANNELS 3 Xrotation Yrotation Zrotation
					JOINT Bind_Left_JacketString1
					{
						OFFSET 0.364800 -5.904503 3.186800
						CHANNELS 3 Xrotation Yrotation Zrotation
						End Site
						{
							OFFSET 0.000000 6.719513 0.000000
						}
					}
				}
				JOINT HairE
				{
					OFFSET 5.915200 17.612701 -11.592200
					CHANNELS 3 Xrotation Yrotation Zrotation
					JOINT HairE1
					{
						OFFSET 0.289200 -7.171898 -1.284500
						CHANNELS 3 Xrotation Yrotation Zrotation
						End Site
						{
							OFFSET 0.000000 7.291756 0.000000
						}
					}
				}
				JOINT HairF
				{
					OFFSET -0.864800 17.612701 -11.592200
					CHANNELS 3 Xrotation Yrotation Zrotation
					JOINT HairF1
					{
						OFFSET 0.000000 -14.087097 -2.127501
						CHANNELS 3 Xrotation Yrotation Zrotation
						End Site
						{
							OFFSET 0.000000 14.246841 0.000000
						}
					}
				}
				JOINT HairG
				{
					OFFSET -8.087700 17.612701 -11.592200
					CHANNELS 3 Xrotation Yrotation Zrotation
					JOINT HairG1
					{
						OFFSET -0.293600 -6.081398 -0.910100
						CHANNELS 3 Xrotation Yrotation Zrotation
						End Site
						{
							OFFSET 0.000000 6.156120 0.000000
						}
					}
				}
			}
		}
	}
	JOINT Pouch
	{
		OFFSET 0.000000 4.394501 10.847300
		CHANNELS 3 Xrotation Yrotation Zrotation
		End Site
		{
			OFFSET 0.000000 21.880577 0.000000
		}
	}
	JOINT Bag
	{
		OFFSET -13.229000 4.813004 -0.593300
		CHANNELS 3 Xrotation Yrotation Zrotation
		End Site
		{
			OFFSET 0.000000 21.880577 0.000000
		}
	}
	JOINT OccupyGuyFacialAnim_Joint
	{
		OFFSET 1.000000 -70.206398 -1.655000
		CHANNELS 3 Xrotation Yrotation Zrotation
		End Site
		{
			OFFSET 0.000000 21.880577 0.000000
		}
	}
}
MOTION
Frames: 4
Frame Time: 0.016667
43.721451 57.096573 165.536148 1.109206 27.977493 -15.093811 0.000000 -0.000000 -0.000001 -39.449547 12.297807 1.671740 106.971561 9.122810 0.497812 4.545514 0.467017 19.263369 0.000002 0.000000 -0.000001 -0.000000 -0.000001 -0.000004 -39.636107 4.836860 -3.330186 63.893278 10.323621 0.391937 -28.816589 -1.170022 14.259349 -0.000000 -0.000002 -0.000000 -0.000000 0.000002 0.000001 4.404091 -2.655140 -1.347581 3.685482 -1.693002 1.426701 3.657015 -1.820083 1.396202 0.856919 2.472365 0.809336 -13.888079 30.928586 5.475028 0.000001 0.000003 0.000000 0.000001 0.000003 0.000000 0.000001 0.000003 0.000000 0.000001 0.000003 0.000000 0.000001 0.000004 -0.000000 0.000001 0.000003 0.000000 0.000001 0.000004 -0.000000 0.000001 0.000003 0.000000 0.000001 0.000003 0.000000 0.537712 -0.925232 -8.721434 28.704785 -17.140812 -55.244356 0.000026 -63.812033 0.000041 -14.162574 -33.316239 32.504054 5.358054 -0.141367 9.666162 3.545774 27.155818 3.560565 0.000001 0.000002 -0.000001 -1.578840 0.825937 -19.703509 0.405083 2.870989 -21.069213 -0.000000 0.000002 -0.000002 0.409507 7.162238 -25.647937 0.416492 2.993231 -22.185354 0.000001 0.000001 0.000001 2.386874 10.570819 -32.882361 0.471659 2.115286 -18.421983 -0.000002 -0.000001 -0.000000 2.967943 13.388249 -36.938903 0.139968 1.667049 -18.441895 0.000000 0.000002 0.000001 0.000000 0.000001 0.000000 0.815845 -4.239273 12.335986 15.586529 20.224409 47.923315 0.006966 92.611717 -0.006943 -14.992144 28.643986 -6.764703 0.789344 -8.211539 -4.825397 0.020119 -13.361262 -9.371046 0.000000 0.000000 0.000002 -1.070482 -2.247351 17.231256 0.405436 -2.871950 21.079323 -0.000001 0.000000 0.000002 0.439001 -7.256197 26.595145 0.417434 -2.995664 22.211562 -0.000000 -0.000001 -0.000001 2.698236 -11.184210 32.166100 0.472425 -2.116938 18.440356 -0.000000 -0.000001 0.000001 4.305392 -16.260314 34.920981 0.139789 -1.666346 18.434723 -0.000001 0.000000 0.000001 -0.000002 -0.000000 0.000002 0.000002 0.000001 -0.000001 0.000001 -0.000000 0.000000 0.000002 0.000001 -0.000001 0.000002 0.000001 -0.000001 0.000002 0.000001 -0.000001 0.000001 -0.000000 0.000000 0.000002 0.000001 -0.000001 0.000002 0.000001 -0.000001 0.000002 0.000001 -0.000001 0.000001 -0.000000 0.000000 0.000000 -0.000000 -0.000001 0.000000 -0.000000 -0.000001 0.000000 -0.000000 -0.000001 
45.984947 56.840019 169.620651 0.526587 28.414364 -15.667636 -0.000000 -0.000000 0.000001 -49.675235 11.771779 3.778677 108.102299 9.545496 0.474290 2.794914 -0.139214 18.610529 -0.000001 0.000000 -0.000001 -0.000002 -0.000001 -0.000001 -34.710847 4.509010 -2.475486 66.038381 10.403334 0.490119 -34.633868 -1.733531 12.037092 -0.000000 0.000001 0.000000 -0.000001 0.000001 -0.000001 5.212113 -0.675305 -0.793762 4.311015 -0.536958 1.522726 4.300140 -0.688782 1.521628 0.463914 2.096613 0.947765 -14.996442 28.403024 5.305053 0.000000 0.000002 -0.000000 0.000000 0.000002 -0.000000 0.000000 0.000002 -0.000000 0.000000 0.000002 -0.000000 0.000000 -0.000001 0.000000 0.000000 0.000002 -0.000000 0.000000 -0.000001 0.000000 0.000000 0.000002 -0.000000 0.000000 0.000002 -0.000000 0.523713 -0.270279 -7.835305 34.348564 -17.343300 -56.852142 0.000019 -59.199326 0.000008 -16.618875 -33.493072 29.916795 5.358055 -0.141368 9.666157 3.545764 27.155818 3.560570 -0.000001 -0.000003 0.000000 -1.578841 0.825936 -19.703509 0.405082 2.870984 -21.069211 0.000001 0.000002 0.000002 0.409507 7.162239 -25.647937 0.416492 2.993237 -22.185359 -0.000000 0.000001 -0.000003 2.386876 10.570817 -32.882368 0.471659 2.115278 -18.421985 0.000001 0.000001 -0.000003 2.967943 13.388247 -36.938903 0.139968 1.667049 -18.441895 -0.000001 -0.000001 0.000001 0.000000 0.000001 0.000001 0.730129 -2.285042 12.250235 5.243291 22.564747 51.239437 -0.001512 93.514948 0.001400 -16.491820 27.969635 -4.873449 0.789344 -8.211539 -4.825396 0.020121 -13.361265 -9.371035 0.000000 -0.000001 0.000003 -1.070483 -2.247351 17.231259 0.405439 -2.871951 21.079325 -0.000002 -0.000000 0.000002 0.439000 -7.256197 26.595152 0.417437 -2.995665 22.211555 0.000000 -0.000000 0.000001 2.698234 -11.184214 32.166107 0.472426 -2.116942 18.440365 -0.000000 0.000000 -0.000002 4.305385 -16.260315 34.920985 0.139786 -1.666344 18.434722 -0.000001 0.000001 0.000001 0.000004 -0.000001 -0.000004 0.000000 -0.000000 0.000002 0.000000 0.000001 -0.000000 0.000000 -0.000000 0.000001 0.000000 -0.000000 0.000001 0.000000 -0.000000 0.000002 0.000000 0.000001 -0.000000 0.000000 -0.000000 0.000001 0.000000 -0.000000 0.000001 0.000000 -0.000000 0.000002 0.000000 0.000001 -0.000000 -0.000000 -0.000000 0.000001 -0.000000 -0.000000 0.000001 -0.000000 -0.000000 0.000001 
48.637691 56.663429 173.710342 0.007784 28.514942 -16.129804 0.000001 0.000001 0.000001 -58.730065 11.036238 4.860484 106.234201 10.386999 0.494604 1.806991 -0.265682 17.922519 -0.000000 -0.000001 0.000001 -0.000001 -0.000003 0.000000 -28.792126 4.013284 -2.164307 66.667530 10.084623 0.619623 -40.496690 -1.553594 9.573018 -0.000000 0.000003 0.000000 0.000002 0.000000 -0.000001 5.600708 1.104732 0.021778 4.651095 0.654906 1.633863 4.657235 0.491976 1.673782 0.396494 1.761074 0.948538 -15.762639 26.254663 5.119164 -0.000000 -0.000000 0.000000 -0.000000 -0.000000 0.000000 -0.000000 -0.000000 0.000001 -0.000000 -0.000000 0.000000 -0.000000 0.000001 -0.000000 -0.000000 -0.000000 0.000000 -0.000000 0.000001 -0.000000 -0.000000 -0.000000 0.000000 -0.000000 -0.000000 0.000000 0.472287 0.823558 -6.563498 41.287046 -17.715626 -58.148720 0.000028 -58.979831 0.000040 -18.820685 -33.533466 26.792944 5.358051 -0.141368 9.666156 3.545769 27.155813 3.560568 0.000000 0.000002 -0.000000 -1.578840 0.825938 -19.703509 0.405083 2.870990 -21.069214 0.000003 0.000001 -0.000002 0.409508 7.162243 -25.647939 0.416493 2.993230 -22.185359 0.000000 0.000004 -0.000001 2.386872 10.570815 -32.882368 0.471660 2.115280 -18.421976 -0.000000 -0.000001 -0.000001 2.967945 13.388248 -36.938903 0.139966 1.667048 -18.441897 0.000001 0.000000 -0.000001 -0.000000 0.000000 0.000000 0.625962 0.265413 11.021707 -6.297816 23.802320 54.826888 -0.000441 96.646972 0.000486 -19.103247 24.520605 -3.410988 0.789340 -8.211539 -4.825395 0.020118 -13.361261 -9.371043 -0.000001 -0.000001 0.000001 -1.070485 -2.247349 17.231251 0.405434 -2.871953 21.079323 0.000001 0.000000 0.000004 0.439001 -7.256197 26.595153 0.417436 -2.995667 22.211557 0.000003 -0.000001 0.000001 2.698232 -11.184215 32.166103 0.472426 -2.116938 18.440362 0.000000 -0.000000 -0.000000 4.305387 -16.260314 34.920981 0.139790 -1.666345 18.434723 -0.000002 0.000001 0.000001 0.000000 0.000001 -0.000000 0.000000 0.000001 -0.000001 0.000001 0.000001 0.000000 0.000000 0.000001 -0.000001 0.000000 0.000001 -0.000001 0.000000 0.000001 -0.000001 0.000001 0.000001 0.000000 0.000000 0.000001 -0.000001 0.000000 0.000001 -0.000001 0.000000 0.000001 -0.000001 0.000001 0.000001 0.000000 0.000001 0.000001 0.000001 0.000001 0.000001 0.000001 0.000001 0.000001 0.000001 
48.637691 56.663429 173.710342 0.007784 28.514942 -16.129804 0.000001 0.000001 0.000001 -58.730065 11.036238 4.860484 106.234201 10.386999 0.494604 1.806991 -0.265682 17.922519 -0.000000 -0.000001 0.000001 -0.000001 -0.000003 0.000000 -28.792126 4.013284 -2.164307 66.667530 10.084623 0.619623 -40.496690 -1.553594 9.573018 -0.000000 0.000003 0.000000 0.000002 0.000000 -0.000001 5.600708 1.104732 0.021778 4.651095 0.654906 1.633863 4.657235 0.491976 1.673782 0.396494 1.761074 0.948538 -15.762639 26.254663 5.119164 -0.000000 -0.000000 0.000000 -0.000000 -0.000000 0.000000 -0.000000 -0.000000 0.000001 -0.000000 -0.000000 0.000000 -0.000000 0.000001 -0.000000 -0.000000 -0.000000 0.000000 -0.000000 0.000001 -0.000000 -0.000000 -0.000000 0.000000 -0.000000 -0.000000 0.000000 0.472287 0.823558 -6.563498 41.287046 -17.715626 -58.148720 0.000028 -58.979831 0.000040 -18.820685 -33.533466 26.792944 5.358051 -0.141368 9.666156 3.545769 27.155813 3.560568 0.000000 0.000002 -0.000000 -1.578840 0.825938 -19.703509 0.405083 2.870990 -21.069214 0.000003 0.000001 -0.000002 0.409508 7.162243 -25.647939 0.416493 2.993230 -22.185359 0.000000 0.000004 -0.000001 2.386872 10.570815 -32.882368 0.471660 2.115280 -18.421976 -0.000000 -0.000001 -0.000001 2.967945 13.388248 -36.938903 0.139966 1.667048 -18.441897 0.000001 0.000000 -0.000001 -0.000000 0.000000 0.000000 0.625962 0.265413 11.021707 -6.297816 23.802320 54.826888 -0.000441 96.646972 0.000486 -19.103247 24.520605 -3.410988 0.789340 -8.211539 -4.825395 0.020118 -13.361261 -9.371043 -0.000001 -0.000001 0.000001 -1.070485 -2.247349 17.231251 0.405434 -2.871953 21.079323 0.000001 0.000000 0.000004 0.439001 -7.256197 26.595153 0.417436 -2.995667 22.211557 0.000003 -0.000001 0.000001 2.698232 -11.184215 32.166103 0.472426 -2.116938 18.440362 0.000000 -0.000000 -0.000000 4.305387 -16.260314 34.920981 0.139790 -1.666345 18.434723 -0.000002 0.000001 0.000001 0.000000 0.000001 -0.000000 0.000000 0.000001 -0.000001 0.000001 0.000001 0.000000 0.000000 0.000001 -0.000001 0.000000 0.000001 -0.000001 0.000000 0.000001 -0.000001 0.000001 0.000001 0.000000 0.000000 0.000001 -0.000001 0.000000 0.000001 -0.000001 0.000000 0.000001 -0.000001 0.000001 0.000001 0.000000 0.000001 0.000001 0.000001 0.000001 0.000001 0.000001 0.000001 0.000001 0.000001 
